# This file uses meters as units for non-parametric coordinates.

mtllib pad2.mtl
g default
v -40.383159 4.261297 -146.133117
v -50.785210 4.261297 -153.690653
v -63.642861 4.261297 -153.690653
v -74.044920 4.261297 -146.133117
v -78.018149 4.261297 -133.904771
v -74.044920 4.261297 -121.676418
v -63.642861 4.261297 -114.118882
v -50.785210 4.261297 -114.118882
v -40.383159 4.261297 -121.676418
v -36.409926 4.261297 -133.904771
v -40.383159 4.766287 -146.133117
v -50.785210 4.766287 -153.690668
v -63.642861 4.766287 -153.690653
v -74.044920 4.766287 -146.133117
v -78.018149 4.766287 -133.904771
v -74.044920 4.766287 -121.676418
v -63.642861 4.766287 -114.118882
v -50.785210 4.766287 -114.118882
v -40.383159 4.766287 -121.676418
v -36.409926 4.766287 -133.904771
v -57.214039 4.177133 -133.904771
v -57.214039 4.850451 -133.904771
v -50.029298 4.513792 -111.792419
v -57.214039 4.766287 -112.618793
v -44.702459 4.261297 -116.684052
v -38.404141 4.513792 -120.238584
v -44.702459 4.766287 -116.684052
v -33.963722 4.513792 -133.904771
v -36.969868 4.261297 -140.482490
v -36.969868 4.766287 -140.482490
v -46.320191 4.177133 -141.819607
v -53.052962 4.177133 -146.711255
v -61.375120 4.177133 -146.711255
v -68.107884 4.177133 -141.819607
v -70.679559 4.177133 -133.904771
v -68.107884 4.177133 -125.989936
v -61.375120 4.177133 -121.098295
v -53.052962 4.177133 -121.098295
v -46.320128 4.177133 -125.989459
v -43.748505 4.177133 -133.904771
v -53.052962 4.850451 -146.711255
v -46.320191 4.850451 -141.819607
v -61.375120 4.850451 -146.711255
v -68.107884 4.850451 -141.819607
v -70.679559 4.850451 -133.904771
v -68.107884 4.850451 -125.989936
v -61.375120 4.850451 -121.098295
v -53.052962 4.850451 -121.098295
v -46.320128 4.850451 -125.989459
v -43.748505 4.850451 -133.904771
v -44.702459 4.261297 -151.125490
v -50.029298 4.513792 -156.017138
v -44.702459 4.766287 -151.125490
v -38.404141 4.513792 -147.570973
v -57.214039 4.261297 -155.190742
v -64.398770 4.513792 -156.017138
v -57.214039 4.766287 -155.190742
v -69.725620 4.261297 -151.125490
v -76.023926 4.513792 -147.570973
v -69.725620 4.766287 -151.125490
v -77.458199 4.261297 -140.482490
v -80.464345 4.513792 -133.904771
v -77.458199 4.766287 -140.482490
v -77.458199 4.261297 -127.327037
v -76.023926 4.513792 -120.238584
v -77.458199 4.766287 -127.327037
v -69.725620 4.261297 -116.684052
v -64.398770 4.513792 -111.792419
v -69.725620 4.766287 -116.684052
v -57.214039 4.261297 -112.618793
v -43.565034 4.513792 -152.691001
v -57.214039 4.513792 -157.125831
v -70.863037 4.513792 -152.691001
v -79.298584 4.513792 -141.080478
v -79.298569 4.513792 -126.729064
v -70.863037 4.513792 -115.118534
v -57.214039 4.513792 -110.683711
v -43.565034 4.513792 -115.118534
v -35.129498 4.513792 -141.080478
v -48.114706 4.177133 -146.428929
v -57.214039 4.177133 -149.385488
v -66.313368 4.177133 -146.428929
v -71.937067 4.177133 -138.688586
v -71.937067 4.177133 -129.120971
v -66.313368 4.177133 -121.380621
v -57.214039 4.177133 -118.424069
v -48.114706 4.177133 -121.380621
v -42.491005 4.177133 -138.688586
v -48.114706 4.850451 -146.428929
v -57.214039 4.850451 -149.385488
v -66.313368 4.850451 -146.428929
v -71.937067 4.850451 -138.688586
v -71.937067 4.850451 -129.120971
v -66.313368 4.850451 -121.380621
v -57.214039 4.850451 -118.424069
v -48.114706 4.850451 -121.380621
v -42.491005 4.850451 -138.688586
vt 0.797123 0.259689
vt 0.865248 0.360045
vt 0.898453 0.347322
vt 0.832060 0.231433
vt 0.881893 0.480128
vt 0.926797 0.477791
vt 0.881893 0.480128
vt 0.865248 0.360045
vt 0.797123 0.259689
vt 0.877980 0.601280
vt 0.912342 0.610487
vt 0.820793 0.708157
vt 0.858512 0.732632
vt 0.820793 0.708157
vt 0.877980 0.601280
vt 0.746337 0.803829
vt 0.768731 0.831449
vt 0.637160 0.856677
vt 0.653288 0.898616
vt 0.637160 0.856677
vt 0.746337 0.803829
vt 0.520601 0.890326
vt 0.522474 0.925810
vt 0.401138 0.868959
vt 0.389513 0.912342
vt 0.401138 0.868959
vt 0.520601 0.890326
vt 0.286996 0.827731
vt 0.267632 0.857525
vt 0.202877 0.740311
vt 0.167941 0.768568
vt 0.202877 0.740311
vt 0.286996 0.827731
vt 0.134752 0.639955
vt 0.101547 0.652678
vt 0.118107 0.519873
vt 0.073203 0.522209
vt 0.118107 0.519873
vt 0.134752 0.639955
vt 0.122020 0.398721
vt 0.087658 0.389514
vt 0.179207 0.291844
vt 0.141488 0.267368
vt 0.179207 0.291844
vt 0.122020 0.398721
vt 0.253663 0.196172
vt 0.231269 0.168551
vt 0.362839 0.143323
vt 0.346712 0.101384
vt 0.362839 0.143323
vt 0.253663 0.196172
vt 0.598862 0.131041
vt 0.713004 0.172269
vt 0.732368 0.142475
vt 0.610487 0.087658
vt 0.713004 0.172269
vt 0.598862 0.131041
vt 0.765635 0.398215
vt 0.747182 0.487138
vt 0.692314 0.344458
vt 0.500000 0.500000
vt 0.774895 0.573658
vt 0.707634 0.634730
vt 0.679154 0.720966
vt 0.588777 0.730861
vt 0.514983 0.783873
vt 0.436011 0.738810
vt 0.345088 0.738350
vt 0.307686 0.655542
vt 0.234365 0.601786
vt 0.252819 0.512863
vt 0.225105 0.426342
vt 0.292366 0.365270
vt 0.320846 0.279034
vt 0.411214 0.269136
vt 0.654912 0.261650
vt 0.563989 0.261190
vt 0.765635 0.398215
vt 0.692314 0.344458
vt 0.747182 0.487138
vt 0.500000 0.500000
vt 0.774895 0.573658
vt 0.707634 0.634730
vt 0.679154 0.720966
vt 0.588777 0.730861
vt 0.514983 0.783873
vt 0.436011 0.738810
vt 0.345088 0.738350
vt 0.307686 0.655542
vt 0.234365 0.601786
vt 0.252819 0.512863
vt 0.225105 0.426342
vt 0.292366 0.365270
vt 0.320846 0.279034
vt 0.411214 0.269136
vt 0.654912 0.261650
vt 0.563989 0.261190
vn 0.035809 -0.999020 -0.026017
vn 0.026353 -0.998994 -0.036272
vn 0.587785 -0.000006 -0.809017
vn 0.809017 0.000001 -0.587785
vn 0.013678 -0.999020 -0.042096
vn 0.309017 -0.000013 -0.951057
vn 0.013678 0.999020 -0.042096
vn 0.026353 0.998994 -0.036272
vn 0.035809 0.999020 -0.026017
vn 0.000000 -0.998994 -0.044835
vn -0.000000 -0.000008 -1.000000
vn -0.013678 -0.999020 -0.042096
vn -0.309017 0.000000 -0.951057
vn -0.013678 0.999020 -0.042096
vn -0.000000 0.998994 -0.044834
vn -0.026353 -0.998994 -0.036272
vn -0.587785 0.000000 -0.809017
vn -0.035809 -0.999020 -0.026017
vn -0.809017 0.000001 -0.587785
vn -0.035809 0.999020 -0.026017
vn -0.026353 0.998994 -0.036272
vn -0.042640 -0.998994 -0.013855
vn -0.951057 0.000001 -0.309017
vn -0.044262 -0.999020 0.000000
vn -1.000000 -0.000000 0.000001
vn -0.044262 0.999020 0.000000
vn -0.042640 0.998994 -0.013855
vn -0.042640 -0.998994 0.013855
vn -0.951056 0.000001 0.309017
vn -0.035809 -0.999020 0.026017
vn -0.809017 0.000001 0.587785
vn -0.035809 0.999020 0.026017
vn -0.042640 0.998994 0.013855
vn -0.026353 -0.998994 0.036272
vn -0.587785 0.000000 0.809017
vn -0.013678 -0.999020 0.042096
vn -0.309017 -0.000000 0.951057
vn -0.013678 0.999020 0.042096
vn -0.026353 0.998994 0.036272
vn -0.000000 -0.998994 0.044835
vn 0.000000 -0.000000 1.000000
vn 0.013678 -0.999020 0.042096
vn 0.309017 0.000000 0.951057
vn 0.013678 0.999020 0.042096
vn -0.000000 0.998994 0.044834
vn 0.026353 -0.998994 0.036273
vn 0.587785 0.000000 0.809017
vn 0.033555 -0.999013 0.029122
vn 0.729544 0.000000 0.683934
vn 0.033555 0.999012 0.029122
vn 0.026353 0.998994 0.036272
vn 0.044262 -0.999013 -0.003836
vn 0.042640 -0.998994 -0.013855
vn 0.951056 0.000001 -0.309017
vn 0.992220 -0.000000 -0.124499
vn 0.042640 0.998994 -0.013855
vn 0.044262 0.999013 -0.003836
vn 0.003786 -0.999979 -0.005211
vn 0.001212 -0.999992 -0.003730
vn 0.003173 -0.999992 -0.002305
vn 0.000000 -1.000000 0.000000
vn 0.000000 -0.999979 -0.006441
vn -0.001212 -0.999992 -0.003730
vn -0.003786 -0.999979 -0.005211
vn -0.003173 -0.999992 -0.002305
vn -0.006126 -0.999979 -0.001990
vn -0.003922 -0.999992 -0.000000
vn -0.006126 -0.999979 0.001990
vn -0.003173 -0.999992 0.002305
vn -0.003786 -0.999979 0.005211
vn -0.001212 -0.999992 0.003730
vn 0.000000 -0.999979 0.006441
vn 0.001212 -0.999992 0.003730
vn 0.003786 -0.999979 0.005211
vn 0.003315 -0.999992 0.002111
vn 0.006126 -0.999979 -0.001990
vn 0.003922 -0.999992 0.000241
vn 0.003786 0.999979 -0.005211
vn 0.003173 0.999992 -0.002305
vn 0.001212 0.999992 -0.003730
vn 0.000000 1.000000 -0.000000
vn -0.000000 0.999979 -0.006441
vn -0.001212 0.999992 -0.003730
vn -0.003786 0.999979 -0.005211
vn -0.003173 0.999992 -0.002305
vn -0.006126 0.999979 -0.001990
vn -0.003922 0.999992 -0.000000
vn -0.006126 0.999979 0.001990
vn -0.003173 0.999992 0.002305
vn -0.003786 0.999979 0.005211
vn -0.001212 0.999992 0.003730
vn 0.000000 0.999979 0.006441
vn 0.001212 0.999992 0.003730
vn 0.003786 0.999979 0.005211
vn 0.003315 0.999992 0.002111
vn 0.006126 0.999979 -0.001990
vn 0.003922 0.999992 0.000241
vn 0.587806 0.000000 -0.809002
vn 0.587806 0.000000 -0.809002
vn 0.587806 0.000000 -0.809002
vn 0.587806 0.000000 -0.809002
vn 0.587748 0.000000 -0.809044
vn 0.587748 0.000000 -0.809044
vn 0.587748 0.000000 -0.809044
vn 0.587748 0.000000 -0.809044
vn 0.587784 0.000000 -0.809018
vn 0.587784 0.000000 -0.809018
vn 0.587784 0.000000 -0.809018
vn 0.000000 0.000000 1.000000
vn 0.000000 0.000000 1.000000
vn 0.000000 0.000000 1.000000
vn 0.000000 0.000000 1.000000
vn 0.000000 0.000000 1.000000
vn 0.000000 0.000000 1.000000
vn 0.000000 0.000000 1.000000
vn 0.000000 0.000000 1.000000
vn 0.000000 0.000000 1.000000
vn 0.000000 0.000000 1.000000
vn 0.000000 0.000000 1.000000
s 1
usemtl initialShadingGroup
f 1/1/1 51/2/2 71/3/3 54/4/4
f 51/2/2 2/5/5 52/6/6 71/3/3
f 71/3/3 52/6/6 12/7/7 53/8/8
f 54/4/4 71/3/3 53/8/8 11/9/9
f 2/5/5 55/10/10 72/11/11 52/6/6
f 55/10/10 3/12/12 56/13/13 72/11/11
f 72/11/11 56/13/13 13/14/14 57/15/15
f 52/6/6 72/11/11 57/15/15 12/7/7
f 3/12/12 58/16/16 73/17/17 56/13/13
f 58/16/16 4/18/18 59/19/19 73/17/17
f 73/17/17 59/19/19 14/20/20 60/21/21
f 56/13/13 73/17/17 60/21/21 13/14/14
f 4/18/18 61/22/22 74/23/23 59/19/19
f 61/22/22 5/24/24 62/25/25 74/23/23
f 74/23/23 62/25/25 15/26/26 63/27/27
f 59/19/19 74/23/23 63/27/27 14/20/20
f 5/24/24 64/28/28 75/29/29 62/25/25
f 64/28/28 6/30/30 65/31/31 75/29/29
f 75/29/29 65/31/31 16/32/32 66/33/33
f 62/25/25 75/29/29 66/33/33 15/26/26
f 6/30/30 67/34/34 76/35/35 65/31/31
f 67/34/34 7/36/36 68/37/37 76/35/35
f 76/35/35 68/37/37 17/38/38 69/39/39
f 65/31/31 76/35/35 69/39/39 16/32/32
f 7/36/36 70/40/40 77/41/41 68/37/37
f 70/40/40 8/42/42 23/43/43 77/41/41
f 77/41/41 23/43/43 18/44/44 24/45/45
f 68/37/37 77/41/41 24/45/45 17/38/38
f 8/42/42 25/46/46 78/47/47 23/43/43
f 25/46/46 9/48/48 26/49/49 78/47/47
f 78/47/47 26/49/49 19/50/50 27/51/51
f 23/43/43 78/47/47 27/51/51 18/44/44
f 10/52/52 29/53/53 79/54/54 28/55/55
f 29/53/53 1/1/1 54/4/4 79/54/54
f 79/54/54 54/4/4 11/9/9 30/56/56
f 28/55/55 79/54/54 30/56/56 20/57/57
f 2/5/5 51/2/2 80/58/58 32/59/59
f 1/1/1 31/60/60 80/58/58 51/2/2
f 21/61/61 32/59/59 80/58/58 31/60/60
f 3/12/12 55/10/10 81/62/62 33/63/63
f 2/5/5 32/59/59 81/62/62 55/10/10
f 21/61/61 33/63/63 81/62/62 32/59/59
f 4/18/18 58/16/16 82/64/64 34/65/65
f 3/12/12 33/63/63 82/64/64 58/16/16
f 21/61/61 34/65/65 82/64/64 33/63/63
f 5/24/24 61/22/22 83/66/66 35/67/67
f 4/18/18 34/65/65 83/66/66 61/22/22
f 21/61/61 35/67/67 83/66/66 34/65/65
f 6/30/30 64/28/28 84/68/68 36/69/69
f 5/24/24 35/67/67 84/68/68 64/28/28
f 21/61/61 36/69/69 84/68/68 35/67/67
f 7/36/36 67/34/34 85/70/70 37/71/71
f 6/30/30 36/69/69 85/70/70 67/34/34
f 21/61/61 37/71/71 85/70/70 36/69/69
f 8/42/42 70/40/40 86/72/72 38/73/73
f 7/36/36 37/71/71 86/72/72 70/40/40
f 21/61/61 38/73/73 86/72/72 37/71/71
f 9/48/48 25/46/46 87/74/74 39/75/75
f 8/42/42 38/73/73 87/74/74 25/46/46
f 21/61/61 39/75/75 87/74/74 38/73/73
f 1/1/1 29/53/53 88/76/76 31/60/60
f 10/52/52 40/77/77 88/76/76 29/53/53
f 21/61/61 31/60/60 88/76/76 40/77/77
f 11/9/9 53/8/8 89/78/78 42/79/79
f 12/7/7 41/80/80 89/78/78 53/8/8
f 22/81/81 42/79/79 89/78/78 41/80/80
f 12/7/7 57/15/15 90/82/82 41/80/80
f 13/14/14 43/83/83 90/82/82 57/15/15
f 22/81/81 41/80/80 90/82/82 43/83/83
f 13/14/14 60/21/21 91/84/84 43/83/83
f 14/20/20 44/85/85 91/84/84 60/21/21
f 22/81/81 43/83/83 91/84/84 44/85/85
f 14/20/20 63/27/27 92/86/86 44/85/85
f 15/26/26 45/87/87 92/86/86 63/27/27
f 22/81/81 44/85/85 92/86/86 45/87/87
f 15/26/26 66/33/33 93/88/88 45/87/87
f 16/32/32 46/89/89 93/88/88 66/33/33
f 22/81/81 45/87/87 93/88/88 46/89/89
f 16/32/32 69/39/39 94/90/90 46/89/89
f 17/38/38 47/91/91 94/90/90 69/39/39
f 22/81/81 46/89/89 94/90/90 47/91/91
f 17/38/38 24/45/45 95/92/92 47/91/91
f 18/44/44 48/93/93 95/92/92 24/45/45
f 22/81/81 47/91/91 95/92/92 48/93/93
f 18/44/44 27/51/51 96/94/94 48/93/93
f 19/50/50 49/95/95 96/94/94 27/51/51
f 22/81/81 48/93/93 96/94/94 49/95/95
f 20/57/57 30/56/56 97/96/96 50/97/97
f 11/9/9 42/79/79 97/96/96 30/56/56
f 22/81/81 50/97/97 97/96/96 42/79/79
s off
f 39/75/98 21/61/99 22/81/100 49/95/101
f 9/48/102 39/75/103 49/95/104 19/50/105
f 26/49/106 9/48/107 19/50/108
f 21/61/109 40/77/110 50/97/111 22/81/112
f 40/77/113 10/52/114 20/57/115 50/97/116
f 28/55/117 20/57/118 10/52/119
